Patient4_TMGait_0pt6_02_right_07_EMG.mot
version=1
nRows=17
nColumns=33
inDegrees=no
endheader
time	1LAddLong	2LGlutMax	3LGlutMed	4LIliopsoas	5LSemiMemb	6LBicFemLong	7LRecFem	8LVastMed	9LVastLat	10LGasMed	11LTibAnt	12lTibPost	13LPeroneusLong	14LSol	15LExtDigLong	16LFlexDigLong	17RAddLong	18RGlutMax	19RGlutMed	20RIliopsoas	21RSemiMemb	22RBicFemLong	23RRecFem	24RVastMed	25RVastLat	26RGasMed	27RTibAnt	28RTibPost	29RPeroneusLong	30RSol	31RExtDigLong	32RFlexDigLong
8.725	0.03891	0.12619	-0.21912	-0.016479	0.13473	-0.51559	0.14404	-0.044861	0.079803	0.025635	0.096283	-0.003204	0.003967	0.025635	-0.032501	-0.00061	0.013733	-0.092468	-0.10696	0.005798	0.31265	-0.38696	-0.2243	-0.061646	0.10193	-0.065918	0.000916	0.003204	-0.005493	0.58105	-0.001068	-0.009308
8.726	0.047607	0.11429	-0.29709	-0.003662	0.21011	-0.31906	0.2066	-0.017395	0.058899	0.018463	0.19531	0.01236	-0.023499	0.054626	0.42877	0.006104	0.027771	-0.002594	-0.12283	0.019684	0.049744	-0.24139	-0.11307	-0.026245	0.10071	-0.080109	0.036621	-0.00061	0.00473	0.30518	0.001068	-0.012817
8.727	0.041962	0.12512	-0.30716	0.002289	0.12741	-0.44281	0.22842	0.006866	0.06485	0.003357	0.1532	-0.003052	0.036011	0.089264	0.060577	0.005341	0.025177	0.027313	-0.13565	0.04837	0.092163	-0.063782	-0.10941	-0.003052	0.031891	-0.040741	0.11078	-0.01297	-0.19455	0.028229	0.000763	-0.02243
8.728	0.028229	0.066376	-0.12436	0.016327	0.056	-0.66391	0.19821	0.000916	0.03418	-0.013428	-0.11276	0.014648	0.099792	0.14084	0.22919	0.005798	0.021362	-0.095978	-0.11749	0.068665	0.18524	0.049286	-0.13351	0.027771	0.012512	0.009766	0.063782	-0.046082	-0.3891	0.10086	0.001678	-0.025024
8.729	0.010223	0.066986	0.10635	0.027771	0.001373	-0.41748	0.11078	-0.006561	0.032043	0.00061	-0.058289	0.010223	0.034637	0.11871	0.23086	-0.005798	-0.002899	-0.07019	-0.052185	0.11841	0.05722	0.072327	-0.10925	0.063782	0.010529	0.00473	-0.008392	-0.002289	-0.046844	0.1326	-0.000153	-0.024567
8.73	-0.005035	0.020599	0.076752	0.025024	-0.046692	-0.085907	0.093842	0.003052	0.10269	0.016327	0.000305	0.002899	-0.014954	0.12192	-0.010071	-0.016479	-0.013733	-0.10056	-0.066071	0.17136	0.10742	0.037384	-0.12451	0.074463	-0.009003	-0.000458	0.00824	0.017395	0.017853	0.037537	-0.000763	-0.024414
8.731	-0.027771	0.081329	0.0914	0.010376	-0.031128	0.15259	0.097198	0.008545	0.22873	0.014191	-0.032196	0.00946	0.020142	0.11551	-0.19928	0.00885	-0.023193	-0.071564	-0.054169	0.085907	0.044098	-0.02655	-0.17044	0.014343	-0.022583	-0.023041	0.016174	0.003052	-0.13473	-0.17777	0.001068	-0.028076
8.732	-0.020447	0.13931	0.079651	0.023346	-0.00061	0.22934	0.089417	0.009308	0.29602	0.006104	-0.14877	0.003967	0.028534	0.091553	-0.2005	0.001831	-0.021515	-0.0737	-0.13596	0.01236	-0.00351	-0.031128	-0.21057	0.020294	-0.024872	-0.028687	0.029602	0.019531	0.00351	-0.07019	0.003052	-0.023041
8.733	-0.016022	0.14053	0.059509	0.019073	0.025635	0.12238	0.055389	0.006409	0.26855	-0.000763	-0.10529	0.014496	-0.018616	0.10544	-0.19501	-0.001678	-0.032654	-0.09903	-0.14725	-0.035095	0.074768	-0.025787	-0.13473	0.015411	-0.00061	-0.0177	0.074005	-0.24567	-0.005341	0.31418	0	-0.023041
8.734	-0.018005	0.13565	0.10422	0.010834	0.074463	-0.087433	0.099182	0.006409	0.17014	-0.028381	-0.045776	0.010071	0.012665	0.056305	-0.27634	0.009308	-0.014496	-0.12512	-0.12741	-0.093536	0.097809	0.076752	-0.11658	-0.033264	-0.007935	-0.018005	0.14313	-0.032806	0.27557	0.61569	-0.001678	-0.016174
8.735	-0.000916	0.097656	0.11047	0.019989	0.11993	-0.23361	0.065765	0.013885	0.16861	-0.014038	-0.059509	0.014343	0.053101	-0.061188	-0.20294	0.013733	0.00473	-0.13275	-0.10101	-0.12894	0.14297	0.077515	-0.18433	-0.046844	-0.008698	-0.016937	0.044403	0.18814	0.52414	0.513	0.000305	-0.01358
8.736	0.003967	0.037994	0.10407	0.00885	0.1149	-0.15549	0.068054	0.003967	0.1564	-0.023193	-0.077209	0.0177	0.12146	-0.081177	-0.215	0.011749	0.033264	-0.103	-0.10849	-0.10132	0.045471	-0.11688	-0.19959	-0.11673	0.074463	-0.02594	-0.43701	0.067444	0.45059	0.30456	-0.000153	-0.010986
8.737	0.012512	0.018921	0.11749	-0.002899	0.10208	-0.007629	0.002289	0.012207	0.097198	-0.004883	-0.000916	0.020294	0.18906	-0.14587	-0.10666	0.014954	0.007935	-0.13092	-0.22339	-0.16129	-0.006409	-0.24277	-0.12772	-0.089417	0.041962	-0.027771	-0.31738	0.040894	0.20477	0.085907	-0.000305	-0.012207
8.738	0.014191	0.019989	0.1059	-0.001526	0.026855	0.050507	0.049591	0.005798	-0.095825	0.008698	0.011749	0.021973	0.20493	-0.10712	-0.010376	0.010376	-0.003662	-0.16083	-0.24277	-0.2446	0.10376	-0.38025	-0.14404	-0.013275	0.035553	-0.021057	-0.3215	0.0177	0.224	-0.19928	-0.001526	-0.00946
8.739	-0.001373	0.039978	0.048981	-0.009155	-0.056305	0.051727	0.070801	-0.006104	-0.29694	0.029755	0.023041	0.024261	0.16296	-0.060883	-0.031281	0.020752	-0.018158	-0.23483	-0.20905	-0.2739	0.13809	-0.36865	-0.10269	-0.016327	0.006256	-0.010376	0.15472	0.000916	0.17899	-0.32303	-0.000458	-0.009003
8.74	0.011292	-0.038605	0.015869	0.006256	-0.026855	0.16174	0.0914	-0.001678	-0.31647	0.045776	0.06134	0.028229	0.25787	0.013885	0.24963	0.009613	-0.005341	-0.20706	-0.20203	-0.065155	0.088959	-0.29022	-0.10544	-0.053864	-0.018005	0.008392	0.4808	-0.003967	0.25482	-0.25192	-0.001831	-0.01297
8.741	0.002594	-0.15823	0.001678	0.011597	-0.07309	0.24811	0.082855	0.005188	-0.14984	0.02182	0.037994	0.0177	0.22339	0.007172	0.31632	0.01297	0.027618	-0.22492	-0.16434	0.23712	0.046844	-0.092316	-0.16296	-0.10574	-0.03006	0.007019	0.37796	-0.014496	0.2562	-0.14587	-0.001373	-0.012817
